<svg xmlns="http://www.w3.org/2000/svg" xmlns:xlink="http://www.w3.org/1999/xlink" version="1.1" viewBox="0 0 172 172"><g fill="none" fill-rule="nonzero" stroke="none" stroke-width="1" stroke-linecap="butt" stroke-linejoin="miter" stroke-miterlimit="10" stroke-dasharray="" stroke-dashoffset="0" font-family="none" font-weight="none" font-size="none" text-anchor="none" style="mix-blend-mode: normal"><path d="M0,172v-172h172v172z" fill="none"/><g fill="#000000"><path d="M15.8025,6.88c-0.44344,0.02688 -0.87344,0.1075 -1.29,0.3225c-1.70656,0.84656 -2.35156,2.91594 -1.505,4.6225l27.735,56.115c1.63938,-1.76031 3.42656,-3.49375 5.2675,-5.0525l-26.875,-54.0725c-0.63156,-1.27656 -1.98875,-2.01562 -3.3325,-1.935zM27.305,6.88l25.6925,50.8475c8.90906,-5.63031 19.43063,-9.03 30.6375,-9.46l18.1675,-36.4425c0.84656,-1.69312 0.08063,-3.77594 -1.6125,-4.6225c-1.69312,-0.84656 -3.66844,-0.08062 -4.515,1.6125l-9.5675,18.92l-9.7825,-19.0275c-0.87344,-1.67969 -2.92937,-2.37844 -4.6225,-1.505c-1.69312,0.87344 -2.37844,3.03688 -1.505,4.73l11.825,22.8975c0.09406,0.18813 0.20156,0.26875 0.3225,0.43l-4.515,9.1375l-18.92,-37.5175zM114.0575,6.88l-20.9625,41.71c9.74219,1.11531 18.82594,4.55531 26.66,9.675l26.015,-51.385zM158.5625,6.88c-1.33031,-0.12094 -2.66062,0.56438 -3.3325,1.8275l-28.9175,54.5025c1.81406,1.55875 3.53406,3.18469 5.16,4.945l29.7775,-56.2225c0.88688,-1.67969 0.28219,-3.73562 -1.3975,-4.6225c-0.41656,-0.22844 -0.84656,-0.38969 -1.29,-0.43zM86,55.04c-30.34187,0 -55.04,24.69813 -55.04,55.04c0,30.34188 24.69813,55.04 55.04,55.04c30.34188,0 55.04,-24.69812 55.04,-55.04c0,-30.34187 -24.69812,-55.04 -55.04,-55.04zM88.6875,65.4675c1.24969,0.06719 2.43219,0.14781 3.655,0.3225l-0.9675,6.88c-1.03469,-0.14781 -2.05594,-0.25531 -3.1175,-0.3225zM81.1625,65.575l0.7525,6.88c-1.06156,0.1075 -2.09625,0.22844 -3.1175,0.43l-1.29,-6.7725c1.20938,-0.22844 2.40531,-0.41656 3.655,-0.5375zM99.6525,67.51c1.19594,0.37625 2.40531,0.80625 3.5475,1.29l-2.6875,6.3425c-0.9675,-0.40312 -1.89469,-0.7525 -2.9025,-1.075zM70.305,68.155l2.365,6.45c-0.99437,0.37625 -1.94844,0.83313 -2.9025,1.29l-2.9025,-6.235c1.11531,-0.52406 2.27094,-1.06156 3.44,-1.505zM109.865,72.24c1.06156,0.67188 2.01563,1.3975 3.01,2.15l-4.085,5.4825c-0.83312,-0.63156 -1.67969,-1.26312 -2.58,-1.8275zM60.415,73.4225l3.87,5.59c-0.87344,0.61813 -1.66625,1.24969 -2.4725,1.935l-4.4075,-5.2675c0.95406,-0.79281 1.98875,-1.53187 3.01,-2.2575zM118.465,79.335c0.86,0.91375 1.69313,1.81406 2.4725,2.795l-5.375,4.3c-0.65844,-0.81969 -1.31687,-1.59906 -2.0425,-2.365zM52.03,80.9475l5.2675,4.515c-0.68531,0.79281 -1.31687,1.6125 -1.935,2.4725l-5.59,-4.085c0.73906,-1.00781 1.43781,-1.94844 2.2575,-2.9025zM86.3225,84.495c15.1575,0 16.555,12.71188 16.555,15.05c0,14.71406 -16.86406,16.52813 -22.4675,25.6925h22.6825v8.385h-35.3675c0,-20.19656 25.37,-21.36562 25.37,-33.325c0,-2.33812 -1.04812,-7.4175 -7.2025,-7.4175c-7.53844,0 -7.6325,9.79594 -7.6325,11.0725h-9.3525c-0.09406,-2.75469 0.33594,-19.4575 17.415,-19.4575zM125.13,88.365c0.60469,1.08844 1.10188,2.19031 1.6125,3.3325l-6.235,2.9025c-0.43,-0.9675 -0.88687,-1.98875 -1.3975,-2.9025zM45.9025,90.3l6.1275,3.01c-0.47031,0.94063 -0.90031,1.92156 -1.29,2.9025l-6.3425,-2.4725c0.45688,-1.16906 0.95406,-2.32469 1.505,-3.44zM129.3225,98.7925c0.30906,1.19594 0.5375,2.41875 0.7525,3.655l-6.7725,1.1825c-0.18812,-1.04812 -0.37625,-2.09625 -0.645,-3.1175zM42.2475,100.835l6.665,1.3975c-0.215,1.02125 -0.29562,2.16344 -0.43,3.225l-6.88,-0.86c0.14781,-1.24969 0.40313,-2.55312 0.645,-3.7625zM130.72,109.865v0.43c0.01344,1.06156 -0.01344,2.32469 -0.1075,3.5475l-6.88,-0.645c0.08063,-1.04812 0.1075,-2.0425 0.1075,-3.1175zM48.16,111.6925c0.05375,1.06156 0.18813,2.17688 0.3225,3.225l-6.88,0.86c-0.16125,-1.22281 -0.26875,-2.51281 -0.3225,-3.7625zM122.6575,119.54l6.665,1.6125c-0.30906,1.22281 -0.67187,2.48594 -1.075,3.655l-6.45,-2.2575c0.34938,-0.99437 0.59125,-1.97531 0.86,-3.01zM49.7725,121.1525c0.30906,1.00781 0.68531,1.935 1.075,2.9025l-6.45,2.58c-0.45687,-1.15562 -0.81969,-2.33812 -1.1825,-3.5475zM119.2175,128.2475l6.02,3.3325c-0.60469,1.08844 -1.24969,2.19031 -1.935,3.225l-5.805,-3.7625c0.59125,-0.88687 1.20938,-1.86781 1.72,-2.795zM53.6425,129.7525c0.55094,0.90031 1.20938,1.73344 1.8275,2.58l-5.59,4.085c-0.73906,-1.00781 -1.3975,-2.05594 -2.0425,-3.1175zM113.6275,135.9875l4.945,4.73c-0.84656,0.90031 -1.65281,1.74688 -2.58,2.58l-4.6225,-5.0525c0.77938,-0.71219 1.53188,-1.49156 2.2575,-2.2575zM59.555,137.17c0.7525,0.73906 1.54531,1.47813 2.365,2.15l-4.4075,5.2675c-0.9675,-0.79281 -1.89469,-1.59906 -2.795,-2.4725zM106.3175,142.0075l3.655,5.805c-1.04812,0.65844 -2.12312,1.35719 -3.225,1.935l-3.225,-6.1275c0.94063,-0.49719 1.90813,-1.04812 2.795,-1.6125zM67.08,142.8675c0.91375,0.52406 1.84094,1.04813 2.795,1.505l-2.9025,6.235c-1.12875,-0.52406 -2.24406,-1.08844 -3.3325,-1.72zM97.7175,146.0925l2.15,6.5575c-1.1825,0.38969 -2.43219,0.68531 -3.655,0.9675l-1.505,-6.665c1.03469,-0.24187 2.01563,-0.5375 3.01,-0.86zM75.895,146.5225c1.00781,0.28219 1.96188,0.55094 3.01,0.7525l-1.29,6.7725c-1.23625,-0.22844 -2.35156,-0.52406 -3.5475,-0.86zM88.4725,147.8125l0.3225,6.88c-0.92719,0.05375 -1.84094,0.1075 -2.795,0.1075h-0.86l0.1075,-6.88h0.7525c0.80625,0 1.66625,-0.05375 2.4725,-0.1075z"/></g></g></svg>
