<svg version="1.1" xmlns="http://www.w3.org/2000/svg" xmlns:xlink="http://www.w3.org/1999/xlink" viewBox="0 0 172 172"><g fill="none" fill-rule="nonzero" stroke="none" stroke-width="1" stroke-linecap="butt" stroke-linejoin="miter" stroke-miterlimit="10" stroke-dasharray="" stroke-dashoffset="0" font-family="none" font-weight="none" font-size="none" text-anchor="none" style="mix-blend-mode: normal"><path d="M0,172v-172h172v172z" fill="none"></path><g fill="#000000"><path d="M79.12,0v14.08922c-34.33567,3.26455 -61.75868,30.6944 -65.02406,65.03078h-14.09594v13.76h14.09594c3.26538,34.33638 30.6884,61.76624 65.02406,65.03078v14.08922h13.76v-14.09594c34.33541,-3.26529 61.75877,-30.68866 65.02406,-65.02406h14.09594v-13.76h-14.09594c-3.26529,-34.33541 -30.68866,-61.75877 -65.02406,-65.02406v-14.09594zM92.88,27.95672c26.85263,3.13028 48.03301,24.31065 51.16328,51.16328h-9.88328v13.76h9.88328c-3.13028,26.85263 -24.31065,48.03301 -51.16328,51.16328v-9.88328h-13.76v9.87656c-26.84448,-3.1345 -48.03326,-24.30615 -51.16328,-51.15656h9.88328v-13.76h-9.88328c3.13002,-26.85042 24.3188,-48.02206 51.16328,-51.15656v9.87656h13.76zM86,61.92c-13.29902,0 -24.08,10.78098 -24.08,24.08c0,13.29902 10.78098,24.08 24.08,24.08c13.29902,0 24.08,-10.78098 24.08,-24.08c0,-13.29902 -10.78098,-24.08 -24.08,-24.08z"></path></g></g></svg>