<svg viewBox="0 0 38.88 27.08" xmlns="http://www.w3.org/2000/svg"><path d="m38.39 24.43c-6.23-6.58-19.58-9.33-28.1-5.21l8.91-12.35 4.26 6.74a.83.83 0 0 0 1.13.28l3.21-2.15 7.76 8.34a.31.31 0 0 0 .44 0 .4.4 0 0 0 .09-.21.42.42 0 0 0 0-.15c-1.61-2.81-4.49-7.8-6.89-11.93a1 1 0 0 0 -1.59-.35l-2.17 1.47-5.44-8.46a.93.93 0 0 0 -.83-.45.92.92 0 0 0 -.72.34h-.05a.08.08 0 0 0 0 0q-9.12 12.3-18.27 24.5a.69.69 0 0 0 .16 1 .68.68 0 0 0 .39.13.61.61 0 0 0 .3-.08h.02l.49-.26c5.07-2.63 16.51-6.5 24.4-.45 3.47 2.95 15.57 2.28 12.5-.75" fill="#428813"/></svg>