<svg version="1.1" xmlns="http://www.w3.org/2000/svg" xmlns:xlink="http://www.w3.org/1999/xlink" viewBox="0 0 172 172"><g fill="none" fill-rule="nonzero" stroke="none" stroke-width="1" stroke-linecap="butt" stroke-linejoin="miter" stroke-miterlimit="10" stroke-dasharray="" stroke-dashoffset="0" font-family="none" font-weight="none" font-size="none" text-anchor="none" style="mix-blend-mode: normal"><path d="M0,172v-172h172v172z" fill="none"></path><g fill="#000000"><path d="M86,6.88c-43.65603,0 -79.12,35.46397 -79.12,79.12c0,43.65603 35.46397,79.12 79.12,79.12c43.65603,0 79.12,-35.46397 79.12,-79.12c0,-43.65603 -35.46397,-79.12 -79.12,-79.12zM55.34906,20.64h3.13094v6.88l6.88,-3.44l3.44,6.88l-6.88,10.32h-6.88l-12.10719,6.0536l8.15656,-24.59063c1.3831,-0.76408 2.82285,-1.42883 4.25969,-2.10297zM125.94969,25.81344c19.46251,12.93373 32.29031,35.03432 32.29031,60.18656c0,3.34591 -0.24638,6.63219 -0.68531,9.8564l-2.75469,-2.9764l-13.76,3.44v3.44l6.88,3.44l-6.02,8.6l-3.44,1.72l-10.68281,-21.37235l-14.82828,2.45235l-2.43219,-6.45l17.2,-6.88l-7.31672,-9.03l-3.44,6.88l-10.32,3.44l-3.44,10.32l-6.88,-10.32l-10.32,3.44l-6.88,6.88h-6.88v-10.32h6.88l11.18,-11.395l11.18,-1.075l11.97281,-12.7186l-7.73328,-8.33125l-5.03906,4.68297l3.44,3.70875l-4.42094,4.70313l-8.75453,-9.03672l12.03328,-11.81828h10.64922l3.3325,6.665l3.44,-6.88l6.88,-3.225l-3.44,-6.88zM41.72344,28.97797l-4.61578,13.69281l-6.14765,2.04922l-3.44,24.08l-6.88,-3.44l-4.39406,1.80735c4.13591,-15.3886 13.25164,-28.68723 25.4775,-38.18938zM75.68,55.04h2.58l4.3,12.47l-3.44,1.29h-6.88v-3.44l3.44,-3.44zM86,96.32l17.2,6.88l20.64,-3.44l10.32,20.64h4.81735l-8.25735,13.76l-8.02219,14.0086c-6.48692,3.83398 -13.58849,6.73391 -21.1775,8.39172l-5.20031,-5.20031v-13.76l-10.32,-6.88l-10.32,3.44l-10.32,-3.44l-3.44,-13.76l6.88,-13.76z"></path></g></g></svg>